<mxfile host="app.diagrams.net" modified="2022-02-24T07:04:41.023Z" agent="5.0 (Macintosh; Intel Mac OS X 10_15_7) AppleWebKit/537.36 (KHTML, like Gecko) Chrome/98.0.4758.109 Safari/537.36" etag="ZDoNHv_88xVLupHXLc98" version="16.6.3" type="github">
  <diagram id="nhHgCwD3R0AYCVMyZUtq" name="Page-1">
    <mxGraphModel dx="1455" dy="828" grid="1" gridSize="10" guides="1" tooltips="1" connect="1" arrows="1" fold="1" page="1" pageScale="1" pageWidth="827" pageHeight="1169" math="0" shadow="0">
      <root>
        <mxCell id="0" />
        <mxCell id="1" parent="0" />
        <mxCell id="HwVQrViwTguHjb0kdv_f-25" value="" style="edgeStyle=orthogonalEdgeStyle;rounded=0;orthogonalLoop=1;jettySize=auto;html=1;entryX=0.5;entryY=0;entryDx=0;entryDy=0;exitX=1;exitY=0.5;exitDx=0;exitDy=0;" edge="1" parent="1" source="HwVQrViwTguHjb0kdv_f-2" target="HwVQrViwTguHjb0kdv_f-26">
          <mxGeometry relative="1" as="geometry">
            <Array as="points">
              <mxPoint x="428" y="350" />
              <mxPoint x="428" y="400" />
            </Array>
          </mxGeometry>
        </mxCell>
        <mxCell id="HwVQrViwTguHjb0kdv_f-37" value="流量缓冲" style="edgeLabel;html=1;align=center;verticalAlign=middle;resizable=0;points=[];" vertex="1" connectable="0" parent="HwVQrViwTguHjb0kdv_f-25">
          <mxGeometry x="-0.4563" relative="1" as="geometry">
            <mxPoint as="offset" />
          </mxGeometry>
        </mxCell>
        <mxCell id="HwVQrViwTguHjb0kdv_f-2" value="levimq" style="rounded=0;whiteSpace=wrap;html=1;" vertex="1" parent="1">
          <mxGeometry x="300" y="330" width="80" height="40" as="geometry" />
        </mxCell>
        <mxCell id="HwVQrViwTguHjb0kdv_f-4" value="zeus" style="rounded=0;whiteSpace=wrap;html=1;" vertex="1" parent="1">
          <mxGeometry x="577" y="400" width="80" height="40" as="geometry" />
        </mxCell>
        <mxCell id="HwVQrViwTguHjb0kdv_f-9" style="edgeStyle=orthogonalEdgeStyle;rounded=0;orthogonalLoop=1;jettySize=auto;html=1;exitX=0.5;exitY=0;exitDx=0;exitDy=0;entryX=0;entryY=0.5;entryDx=0;entryDy=0;" edge="1" parent="1" source="HwVQrViwTguHjb0kdv_f-7" target="HwVQrViwTguHjb0kdv_f-8">
          <mxGeometry relative="1" as="geometry" />
        </mxCell>
        <mxCell id="HwVQrViwTguHjb0kdv_f-12" value="" style="edgeStyle=orthogonalEdgeStyle;rounded=0;orthogonalLoop=1;jettySize=auto;html=1;" edge="1" parent="1" source="HwVQrViwTguHjb0kdv_f-7" target="HwVQrViwTguHjb0kdv_f-11">
          <mxGeometry relative="1" as="geometry">
            <Array as="points">
              <mxPoint x="40" y="430" />
            </Array>
          </mxGeometry>
        </mxCell>
        <mxCell id="HwVQrViwTguHjb0kdv_f-18" value="蓝牙" style="edgeLabel;html=1;align=center;verticalAlign=middle;resizable=0;points=[];" vertex="1" connectable="0" parent="HwVQrViwTguHjb0kdv_f-12">
          <mxGeometry x="-0.2824" relative="1" as="geometry">
            <mxPoint as="offset" />
          </mxGeometry>
        </mxCell>
        <mxCell id="HwVQrViwTguHjb0kdv_f-13" style="edgeStyle=orthogonalEdgeStyle;rounded=0;orthogonalLoop=1;jettySize=auto;html=1;exitX=1;exitY=0.5;exitDx=0;exitDy=0;" edge="1" parent="1" source="HwVQrViwTguHjb0kdv_f-7">
          <mxGeometry relative="1" as="geometry">
            <mxPoint x="300" y="350" as="targetPoint" />
          </mxGeometry>
        </mxCell>
        <mxCell id="HwVQrViwTguHjb0kdv_f-17" value="wifi" style="edgeLabel;html=1;align=center;verticalAlign=middle;resizable=0;points=[];" vertex="1" connectable="0" parent="HwVQrViwTguHjb0kdv_f-13">
          <mxGeometry x="-0.5266" y="-1" relative="1" as="geometry">
            <mxPoint as="offset" />
          </mxGeometry>
        </mxCell>
        <mxCell id="HwVQrViwTguHjb0kdv_f-7" value="设备" style="rounded=0;whiteSpace=wrap;html=1;" vertex="1" parent="1">
          <mxGeometry y="330" width="80" height="40" as="geometry" />
        </mxCell>
        <mxCell id="HwVQrViwTguHjb0kdv_f-10" style="edgeStyle=orthogonalEdgeStyle;rounded=0;orthogonalLoop=1;jettySize=auto;html=1;exitX=1;exitY=0.5;exitDx=0;exitDy=0;entryX=0;entryY=0.5;entryDx=0;entryDy=0;" edge="1" parent="1" source="HwVQrViwTguHjb0kdv_f-8" target="HwVQrViwTguHjb0kdv_f-2">
          <mxGeometry relative="1" as="geometry">
            <Array as="points">
              <mxPoint x="230" y="270" />
              <mxPoint x="230" y="350" />
            </Array>
          </mxGeometry>
        </mxCell>
        <mxCell id="HwVQrViwTguHjb0kdv_f-8" value="蓝牙/zigbee网关" style="rounded=0;whiteSpace=wrap;html=1;" vertex="1" parent="1">
          <mxGeometry x="80" y="250" width="80" height="40" as="geometry" />
        </mxCell>
        <mxCell id="HwVQrViwTguHjb0kdv_f-22" value="" style="edgeStyle=orthogonalEdgeStyle;rounded=0;orthogonalLoop=1;jettySize=auto;html=1;entryX=0;entryY=0.5;entryDx=0;entryDy=0;exitX=1;exitY=0.5;exitDx=0;exitDy=0;" edge="1" parent="1" source="HwVQrViwTguHjb0kdv_f-11" target="HwVQrViwTguHjb0kdv_f-21">
          <mxGeometry relative="1" as="geometry">
            <Array as="points">
              <mxPoint x="160" y="420" />
            </Array>
          </mxGeometry>
        </mxCell>
        <mxCell id="HwVQrViwTguHjb0kdv_f-34" value="透穿" style="edgeLabel;html=1;align=center;verticalAlign=middle;resizable=0;points=[];" vertex="1" connectable="0" parent="HwVQrViwTguHjb0kdv_f-22">
          <mxGeometry x="0.1798" y="2" relative="1" as="geometry">
            <mxPoint as="offset" />
          </mxGeometry>
        </mxCell>
        <mxCell id="HwVQrViwTguHjb0kdv_f-11" value="客户端" style="rounded=0;whiteSpace=wrap;html=1;" vertex="1" parent="1">
          <mxGeometry x="80" y="401" width="80" height="40" as="geometry" />
        </mxCell>
        <mxCell id="HwVQrViwTguHjb0kdv_f-14" value="jupiter" style="rounded=0;whiteSpace=wrap;html=1;" vertex="1" parent="1">
          <mxGeometry x="807" y="400" width="80" height="40" as="geometry" />
        </mxCell>
        <mxCell id="HwVQrViwTguHjb0kdv_f-27" value="" style="edgeStyle=orthogonalEdgeStyle;rounded=0;orthogonalLoop=1;jettySize=auto;html=1;entryX=0;entryY=0.5;entryDx=0;entryDy=0;" edge="1" parent="1" source="HwVQrViwTguHjb0kdv_f-21" target="HwVQrViwTguHjb0kdv_f-26">
          <mxGeometry relative="1" as="geometry" />
        </mxCell>
        <mxCell id="HwVQrViwTguHjb0kdv_f-21" value="atop" style="whiteSpace=wrap;html=1;rounded=0;" vertex="1" parent="1">
          <mxGeometry x="246" y="400" width="81" height="40" as="geometry" />
        </mxCell>
        <mxCell id="HwVQrViwTguHjb0kdv_f-26" value="nsq" style="whiteSpace=wrap;html=1;rounded=0;" vertex="1" parent="1">
          <mxGeometry x="387" y="400" width="81" height="40" as="geometry" />
        </mxCell>
        <mxCell id="HwVQrViwTguHjb0kdv_f-28" value="" style="edgeStyle=orthogonalEdgeStyle;rounded=0;orthogonalLoop=1;jettySize=auto;html=1;entryX=0;entryY=0.5;entryDx=0;entryDy=0;exitX=1;exitY=0.5;exitDx=0;exitDy=0;" edge="1" parent="1" source="HwVQrViwTguHjb0kdv_f-26" target="HwVQrViwTguHjb0kdv_f-4">
          <mxGeometry relative="1" as="geometry">
            <mxPoint x="327" y="360" as="sourcePoint" />
            <mxPoint x="437.5" y="410" as="targetPoint" />
            <Array as="points">
              <mxPoint x="497" y="420" />
              <mxPoint x="497" y="420" />
            </Array>
          </mxGeometry>
        </mxCell>
        <mxCell id="HwVQrViwTguHjb0kdv_f-40" value="校验dp是否合法" style="edgeLabel;html=1;align=center;verticalAlign=middle;resizable=0;points=[];" vertex="1" connectable="0" parent="HwVQrViwTguHjb0kdv_f-28">
          <mxGeometry x="-0.2154" y="-1" relative="1" as="geometry">
            <mxPoint as="offset" />
          </mxGeometry>
        </mxCell>
        <mxCell id="HwVQrViwTguHjb0kdv_f-29" value="" style="edgeStyle=orthogonalEdgeStyle;rounded=0;orthogonalLoop=1;jettySize=auto;html=1;entryX=0;entryY=0.5;entryDx=0;entryDy=0;exitX=1;exitY=0.5;exitDx=0;exitDy=0;" edge="1" parent="1" source="HwVQrViwTguHjb0kdv_f-4" target="HwVQrViwTguHjb0kdv_f-48">
          <mxGeometry relative="1" as="geometry">
            <mxPoint x="550" y="430" as="sourcePoint" />
            <mxPoint x="589" y="430" as="targetPoint" />
            <Array as="points" />
          </mxGeometry>
        </mxCell>
        <mxCell id="HwVQrViwTguHjb0kdv_f-30" value="kafka" style="rounded=0;whiteSpace=wrap;html=1;" vertex="1" parent="1">
          <mxGeometry x="917" y="400" width="80" height="40" as="geometry" />
        </mxCell>
        <mxCell id="HwVQrViwTguHjb0kdv_f-31" value="hulk" style="rounded=0;whiteSpace=wrap;html=1;" vertex="1" parent="1">
          <mxGeometry x="1027" y="400" width="80" height="40" as="geometry" />
        </mxCell>
        <mxCell id="HwVQrViwTguHjb0kdv_f-32" value="" style="edgeStyle=orthogonalEdgeStyle;rounded=0;orthogonalLoop=1;jettySize=auto;html=1;entryX=0;entryY=0.5;entryDx=0;entryDy=0;exitX=1;exitY=0.5;exitDx=0;exitDy=0;" edge="1" parent="1" source="HwVQrViwTguHjb0kdv_f-14" target="HwVQrViwTguHjb0kdv_f-30">
          <mxGeometry relative="1" as="geometry">
            <mxPoint x="784.9999999999998" y="430" as="sourcePoint" />
            <mxPoint x="817" y="430" as="targetPoint" />
            <Array as="points">
              <mxPoint x="907" y="420" />
              <mxPoint x="907" y="420" />
            </Array>
          </mxGeometry>
        </mxCell>
        <mxCell id="HwVQrViwTguHjb0kdv_f-33" value="" style="edgeStyle=orthogonalEdgeStyle;rounded=0;orthogonalLoop=1;jettySize=auto;html=1;entryX=0;entryY=0.5;entryDx=0;entryDy=0;exitX=1;exitY=0.5;exitDx=0;exitDy=0;" edge="1" parent="1" source="HwVQrViwTguHjb0kdv_f-30" target="HwVQrViwTguHjb0kdv_f-31">
          <mxGeometry relative="1" as="geometry">
            <mxPoint x="897" y="430" as="sourcePoint" />
            <mxPoint x="927" y="430" as="targetPoint" />
            <Array as="points">
              <mxPoint x="1007" y="420" />
              <mxPoint x="1007" y="420" />
            </Array>
          </mxGeometry>
        </mxCell>
        <mxCell id="HwVQrViwTguHjb0kdv_f-35" value="athena" style="rounded=0;whiteSpace=wrap;html=1;" vertex="1" parent="1">
          <mxGeometry x="580" y="520" width="80" height="40" as="geometry" />
        </mxCell>
        <mxCell id="HwVQrViwTguHjb0kdv_f-38" value="tuya.device.m.dp.report&lt;br&gt;新版本的type不要选query" style="shape=callout;whiteSpace=wrap;html=1;perimeter=calloutPerimeter;position2=0.67;direction=west;" vertex="1" parent="1">
          <mxGeometry x="246" y="510" width="174" height="80" as="geometry" />
        </mxCell>
        <mxCell id="HwVQrViwTguHjb0kdv_f-41" value="arthas" style="rounded=0;whiteSpace=wrap;html=1;" vertex="1" parent="1">
          <mxGeometry x="468" y="520" width="80" height="40" as="geometry" />
        </mxCell>
        <mxCell id="HwVQrViwTguHjb0kdv_f-42" value="asgard" style="rounded=0;whiteSpace=wrap;html=1;" vertex="1" parent="1">
          <mxGeometry x="689" y="520" width="80" height="40" as="geometry" />
        </mxCell>
        <mxCell id="HwVQrViwTguHjb0kdv_f-43" value="" style="html=1;verticalAlign=bottom;endArrow=open;dashed=1;endSize=8;rounded=0;entryX=0.5;entryY=0;entryDx=0;entryDy=0;exitX=0.5;exitY=1;exitDx=0;exitDy=0;" edge="1" parent="1" source="HwVQrViwTguHjb0kdv_f-4" target="HwVQrViwTguHjb0kdv_f-41">
          <mxGeometry relative="1" as="geometry">
            <mxPoint x="710" y="329.23" as="sourcePoint" />
            <mxPoint x="790" y="329.23" as="targetPoint" />
          </mxGeometry>
        </mxCell>
        <mxCell id="HwVQrViwTguHjb0kdv_f-46" value="产品pid对&lt;br&gt;应的dpid&lt;br&gt;及相关协&lt;br&gt;议校验" style="edgeLabel;html=1;align=center;verticalAlign=middle;resizable=0;points=[];" vertex="1" connectable="0" parent="HwVQrViwTguHjb0kdv_f-43">
          <mxGeometry x="-0.0453" y="-1" relative="1" as="geometry">
            <mxPoint as="offset" />
          </mxGeometry>
        </mxCell>
        <mxCell id="HwVQrViwTguHjb0kdv_f-44" value="" style="html=1;verticalAlign=bottom;endArrow=open;dashed=1;endSize=8;rounded=0;exitX=0.5;exitY=0;exitDx=0;exitDy=0;entryX=0.5;entryY=0;entryDx=0;entryDy=0;" edge="1" parent="1" target="HwVQrViwTguHjb0kdv_f-35">
          <mxGeometry relative="1" as="geometry">
            <mxPoint x="620" y="440" as="sourcePoint" />
            <mxPoint x="518" y="530" as="targetPoint" />
          </mxGeometry>
        </mxCell>
        <mxCell id="HwVQrViwTguHjb0kdv_f-47" value="设备实例&lt;br&gt;校验跟&lt;br&gt;配网有关" style="edgeLabel;html=1;align=center;verticalAlign=middle;resizable=0;points=[];" vertex="1" connectable="0" parent="HwVQrViwTguHjb0kdv_f-44">
          <mxGeometry x="-0.15" y="1" relative="1" as="geometry">
            <mxPoint as="offset" />
          </mxGeometry>
        </mxCell>
        <mxCell id="HwVQrViwTguHjb0kdv_f-45" value="群控校验" style="html=1;verticalAlign=bottom;endArrow=open;dashed=1;endSize=8;rounded=0;exitX=0.5;exitY=0;exitDx=0;exitDy=0;entryX=0.587;entryY=1.015;entryDx=0;entryDy=0;entryPerimeter=0;" edge="1" parent="1">
          <mxGeometry x="-0.0399" y="-2" relative="1" as="geometry">
            <mxPoint x="623.96" y="441.6" as="sourcePoint" />
            <mxPoint x="729" y="521" as="targetPoint" />
            <mxPoint as="offset" />
          </mxGeometry>
        </mxCell>
        <mxCell id="HwVQrViwTguHjb0kdv_f-48" value="kafka" style="rounded=0;whiteSpace=wrap;html=1;" vertex="1" parent="1">
          <mxGeometry x="689" y="400" width="80" height="40" as="geometry" />
        </mxCell>
        <mxCell id="HwVQrViwTguHjb0kdv_f-49" value="" style="edgeStyle=orthogonalEdgeStyle;rounded=0;orthogonalLoop=1;jettySize=auto;html=1;entryX=0;entryY=0.5;entryDx=0;entryDy=0;exitX=1;exitY=0.5;exitDx=0;exitDy=0;" edge="1" parent="1" source="HwVQrViwTguHjb0kdv_f-48" target="HwVQrViwTguHjb0kdv_f-14">
          <mxGeometry relative="1" as="geometry">
            <mxPoint x="667" y="430" as="sourcePoint" />
            <mxPoint x="699" y="430" as="targetPoint" />
            <Array as="points">
              <mxPoint x="780" y="420" />
              <mxPoint x="780" y="420" />
            </Array>
          </mxGeometry>
        </mxCell>
        <mxCell id="HwVQrViwTguHjb0kdv_f-50" value="apollo" style="rounded=0;whiteSpace=wrap;html=1;" vertex="1" parent="1">
          <mxGeometry x="580" y="600" width="80" height="40" as="geometry" />
        </mxCell>
        <mxCell id="HwVQrViwTguHjb0kdv_f-51" value="" style="edgeStyle=orthogonalEdgeStyle;rounded=0;orthogonalLoop=1;jettySize=auto;html=1;entryX=0.5;entryY=1;entryDx=0;entryDy=0;exitX=0.5;exitY=0;exitDx=0;exitDy=0;" edge="1" parent="1" source="HwVQrViwTguHjb0kdv_f-50" target="HwVQrViwTguHjb0kdv_f-35">
          <mxGeometry relative="1" as="geometry">
            <mxPoint x="779" y="430" as="sourcePoint" />
            <mxPoint x="817" y="430" as="targetPoint" />
            <Array as="points">
              <mxPoint x="620" y="580" />
              <mxPoint x="620" y="580" />
            </Array>
          </mxGeometry>
        </mxCell>
        <mxCell id="HwVQrViwTguHjb0kdv_f-52" value="配网成功后&lt;br&gt;就有设备实例" style="edgeLabel;html=1;align=center;verticalAlign=middle;resizable=0;points=[];" vertex="1" connectable="0" parent="HwVQrViwTguHjb0kdv_f-51">
          <mxGeometry x="0.1" y="-2" relative="1" as="geometry">
            <mxPoint as="offset" />
          </mxGeometry>
        </mxCell>
        <mxCell id="HwVQrViwTguHjb0kdv_f-55" value="查询那些产品的dp需要转发" style="html=1;verticalAlign=bottom;endArrow=open;dashed=1;endSize=8;rounded=0;exitX=0.5;exitY=0;exitDx=0;exitDy=0;entryX=0.5;entryY=0;entryDx=0;entryDy=0;" edge="1" parent="1" source="HwVQrViwTguHjb0kdv_f-14" target="HwVQrViwTguHjb0kdv_f-31">
          <mxGeometry x="-0.0399" y="-2" relative="1" as="geometry">
            <mxPoint x="935.04" y="339.4" as="sourcePoint" />
            <mxPoint x="830" y="260" as="targetPoint" />
            <mxPoint as="offset" />
            <Array as="points">
              <mxPoint x="847" y="360" />
              <mxPoint x="847" y="350" />
              <mxPoint x="960" y="350" />
              <mxPoint x="1067" y="350" />
            </Array>
          </mxGeometry>
        </mxCell>
      </root>
    </mxGraphModel>
  </diagram>
</mxfile>
